<svg version="1.1" xmlns="http://www.w3.org/2000/svg" viewBox="0 0 1238.034516435992 1176.401535445575" width="1238.034516435992" height="1176.401535445575">
  <!-- svg-source:excalidraw -->
  
  <defs>
    <style class="style-fonts">
      @font-face {
        font-family: "Virgil";
        src: url("https://excalidraw.com/Virgil.woff2");
      }
      @font-face {
        font-family: "Cascadia";
        src: url("https://excalidraw.com/Cascadia.woff2");
      }
      @font-face {
        font-family: "Assistant";
        src: url("https://excalidraw.com/Assistant-Regular.woff2");
      }
    </style>
    
  </defs>
  <rect x="0" y="0" width="1238.034516435992" height="1176.401535445575" fill="#ffffff"></rect><g stroke-linecap="round" transform="translate(286.1107610352892 179.11176140048957) rotate(0 133.5 36.5)"><path d="M18.25 0 C66.34 2.02, 117.77 0.14, 248.75 0 M18.25 0 C91.21 0.26, 165.63 0.05, 248.75 0 M248.75 0 C262.77 -0.4, 267.41 6.14, 267 18.25 M248.75 0 C262.02 -1.67, 268.14 5.2, 267 18.25 M267 18.25 C268.29 26.43, 267.79 35.87, 267 54.75 M267 18.25 C267.55 31.2, 266.64 42.58, 267 54.75 M267 54.75 C267.21 66.87, 260.34 72.27, 248.75 73 M267 54.75 C268.33 67.56, 258.71 70.79, 248.75 73 M248.75 73 C198.38 73.66, 148.95 73.04, 18.25 73 M248.75 73 C165.69 72.86, 83.94 72.02, 18.25 73 M18.25 73 C4.91 73.5, -0.9 68.42, 0 54.75 M18.25 73 C6.08 72.17, -0.61 64.74, 0 54.75 M0 54.75 C1.67 39.95, 1.36 26.59, 0 18.25 M0 54.75 C-0.77 40.57, -0.92 27.52, 0 18.25 M0 18.25 C-1.41 4.09, 4.45 0.31, 18.25 0 M0 18.25 C2.04 5.74, 4.04 -1.91, 18.25 0" stroke="#1e1e1e" stroke-width="2" fill="none"></path></g><g transform="translate(379.6107610352892 203.61176140048957) rotate(0 40 12)"><text x="40" y="0" font-family="Cascadia, Segoe UI Emoji" font-size="20px" fill="#1e1e1e" text-anchor="middle" style="white-space: pre;" direction="ltr" dominant-baseline="text-before-edge">前端页面</text></g><g transform="translate(391.56758101306605 77.25984333433689) rotate(0 28.5 12.5)"><text x="0" y="0" font-family="Virgil, Segoe UI Emoji" font-size="20px" fill="#000000" text-anchor="start" style="white-space: pre;" direction="ltr" dominant-baseline="text-before-edge">Users</text></g><g stroke-linecap="round" transform="translate(432.0103979522853 10) rotate(0 9.87517181638475 8.64077533933672)"><path d="M2.19 3.23 C2.19 3.23, 2.19 3.23, 2.19 3.23 M2.19 3.23 C2.19 3.23, 2.19 3.23, 2.19 3.23 M2.98 14.51 C7.61 9.18, 12.25 3.85, 14.79 0.93 M2.98 14.51 C6.21 10.8, 9.44 7.08, 14.79 0.93 M10.33 18.25 C13.31 14.82, 16.3 11.38, 19.51 7.69 M10.33 18.25 C13.56 14.53, 16.8 10.81, 19.51 7.69 M3.77 15.47 C3.77 15.47, 3.77 15.47, 3.77 15.47 M3.77 15.47 C3.77 15.47, 3.77 15.47, 3.77 15.47 M15.81 15.34 C11.43 11.53, 7.04 7.71, 2.23 3.53 M15.81 15.34 C11.05 11.2, 6.29 7.07, 2.23 3.53 M20.31 8.65 C17.75 6.43, 15.2 4.2, 9.74 -0.54 M20.31 8.65 C16.57 5.39, 12.82 2.14, 9.74 -0.54" stroke="#ced4da" stroke-width="1" fill="none"></path><path d="M19.75 8.64 C19.75 9.14, 19.7 9.65, 19.6 10.14 C19.5 10.63, 19.35 11.13, 19.15 11.6 C18.96 12.07, 18.71 12.53, 18.43 12.96 C18.14 13.39, 17.81 13.81, 17.44 14.19 C17.07 14.58, 16.66 14.94, 16.22 15.26 C15.78 15.58, 15.31 15.87, 14.81 16.12 C14.32 16.37, 13.79 16.59, 13.25 16.76 C12.72 16.93, 12.15 17.06, 11.59 17.15 C11.03 17.24, 10.45 17.28, 9.88 17.28 C9.3 17.28, 8.72 17.24, 8.16 17.15 C7.6 17.06, 7.03 16.93, 6.5 16.76 C5.96 16.59, 5.43 16.37, 4.94 16.12 C4.44 15.87, 3.97 15.58, 3.53 15.26 C3.09 14.94, 2.68 14.58, 2.31 14.19 C1.94 13.81, 1.61 13.39, 1.32 12.96 C1.04 12.53, 0.79 12.07, 0.6 11.6 C0.4 11.13, 0.25 10.63, 0.15 10.14 C0.05 9.65, 0 9.14, 0 8.64 C0 8.14, 0.05 7.63, 0.15 7.14 C0.25 6.65, 0.4 6.16, 0.6 5.69 C0.79 5.22, 1.04 4.75, 1.32 4.32 C1.61 3.89, 1.94 3.47, 2.31 3.09 C2.68 2.7, 3.09 2.34, 3.53 2.02 C3.97 1.7, 4.44 1.41, 4.94 1.16 C5.43 0.91, 5.96 0.69, 6.5 0.52 C7.03 0.35, 7.6 0.22, 8.16 0.13 C8.72 0.04, 9.3 0, 9.88 0 C10.45 0, 11.03 0.04, 11.59 0.13 C12.15 0.22, 12.72 0.35, 13.25 0.52 C13.79 0.69, 14.32 0.91, 14.81 1.16 C15.31 1.41, 15.78 1.7, 16.22 2.02 C16.66 2.34, 17.07 2.7, 17.44 3.09 C17.81 3.47, 18.14 3.89, 18.43 4.32 C18.71 4.75, 18.96 5.22, 19.15 5.69 C19.35 6.16, 19.5 6.65, 19.6 7.14 C19.7 7.63, 19.73 8.39, 19.75 8.64 C19.78 8.89, 19.78 8.39, 19.75 8.64" stroke="#000000" stroke-width="2" fill="none"></path></g><g stroke-linecap="round" transform="translate(388.8267238279634 10.583067783634078) rotate(0 9.87517181638475 8.64077533933672)"><path d="M2.19 3.23 C2.19 3.23, 2.19 3.23, 2.19 3.23 M2.19 3.23 C2.19 3.23, 2.19 3.23, 2.19 3.23 M2.98 14.51 C5.97 11.07, 8.97 7.62, 14.79 0.93 M2.98 14.51 C7.69 9.09, 12.4 3.67, 14.79 0.93 M10.33 18.25 C12.43 15.83, 14.54 13.4, 19.51 7.69 M10.33 18.25 C12.44 15.82, 14.56 13.39, 19.51 7.69 M3.77 15.47 C3.77 15.47, 3.77 15.47, 3.77 15.47 M3.77 15.47 C3.77 15.47, 3.77 15.47, 3.77 15.47 M15.81 15.34 C12.32 12.3, 8.82 9.26, 2.23 3.53 M15.81 15.34 C10.58 10.79, 5.34 6.24, 2.23 3.53 M20.31 8.65 C16.27 5.13, 12.22 1.62, 9.74 -0.54 M20.31 8.65 C16.42 5.27, 12.53 1.88, 9.74 -0.54" stroke="#ced4da" stroke-width="1" fill="none"></path><path d="M19.75 8.64 C19.75 9.14, 19.7 9.65, 19.6 10.14 C19.5 10.63, 19.35 11.13, 19.15 11.6 C18.96 12.07, 18.71 12.53, 18.43 12.96 C18.14 13.39, 17.81 13.81, 17.44 14.19 C17.07 14.58, 16.66 14.94, 16.22 15.26 C15.78 15.58, 15.31 15.87, 14.81 16.12 C14.32 16.37, 13.79 16.59, 13.25 16.76 C12.72 16.93, 12.15 17.06, 11.59 17.15 C11.03 17.24, 10.45 17.28, 9.88 17.28 C9.3 17.28, 8.72 17.24, 8.16 17.15 C7.6 17.06, 7.03 16.93, 6.5 16.76 C5.96 16.59, 5.43 16.37, 4.94 16.12 C4.44 15.87, 3.97 15.58, 3.53 15.26 C3.09 14.94, 2.68 14.58, 2.31 14.19 C1.94 13.81, 1.61 13.39, 1.32 12.96 C1.04 12.53, 0.79 12.07, 0.6 11.6 C0.4 11.13, 0.25 10.63, 0.15 10.14 C0.05 9.65, 0 9.14, 0 8.64 C0 8.14, 0.05 7.63, 0.15 7.14 C0.25 6.65, 0.4 6.16, 0.6 5.69 C0.79 5.22, 1.04 4.75, 1.32 4.32 C1.61 3.89, 1.94 3.47, 2.31 3.09 C2.68 2.7, 3.09 2.34, 3.53 2.02 C3.97 1.7, 4.44 1.41, 4.94 1.16 C5.43 0.91, 5.96 0.69, 6.5 0.52 C7.03 0.35, 7.6 0.22, 8.16 0.13 C8.72 0.04, 9.3 0, 9.88 0 C10.45 0, 11.03 0.04, 11.59 0.13 C12.15 0.22, 12.72 0.35, 13.25 0.52 C13.79 0.69, 14.32 0.91, 14.81 1.16 C15.31 1.41, 15.78 1.7, 16.22 2.02 C16.66 2.34, 17.07 2.7, 17.44 3.09 C17.81 3.47, 18.14 3.89, 18.43 4.32 C18.71 4.75, 18.96 5.22, 19.15 5.69 C19.35 6.16, 19.5 6.65, 19.6 7.14 C19.7 7.63, 19.73 8.39, 19.75 8.64 C19.78 8.89, 19.78 8.39, 19.75 8.64" stroke="#000000" stroke-width="2" fill="none"></path></g><g stroke-linecap="round"><g transform="translate(399.27854383522777 69.51410352128369) rotate(0 20.903001066267393 -18.61352214878211)" fill-rule="evenodd"><path d="M11.93 -33.36 C11.93 -33.36, 11.93 -33.36, 11.93 -33.36 M11.93 -33.36 C11.93 -33.36, 11.93 -33.36, 11.93 -33.36 M1.56 -9.24 C6.98 -15.48, 12.4 -21.71, 25.18 -36.41 M1.56 -9.24 C7 -15.5, 12.44 -21.76, 25.18 -36.41 M4.32 -0.22 C10.4 -7.22, 16.48 -14.21, 31.22 -31.16 M4.32 -0.22 C14.08 -11.45, 23.85 -22.69, 31.22 -31.16 M14.95 -0.26 C20.53 -6.67, 26.1 -13.09, 36.6 -25.16 M14.95 -0.26 C23.29 -9.85, 31.63 -19.45, 36.6 -25.16 M25.58 -0.29 C31.35 -6.93, 37.13 -13.57, 40.67 -17.65 M25.58 -0.29 C31.13 -6.68, 36.69 -13.07, 40.67 -17.65 M36.21 -0.32 C39.35 -3.94, 42.49 -7.55, 44.08 -9.38 M36.21 -0.32 C38.35 -2.79, 40.49 -5.25, 44.08 -9.38 M0 0 C0 0, 0 0, 0 0 M0 0 C0 0, 0 0, 0 0 M12.04 -0.13 C8.32 -3.37, 4.59 -6.61, 1.47 -9.32 M12.04 -0.13 C8.17 -3.5, 4.3 -6.86, 1.47 -9.32 M24.08 -0.27 C19.37 -4.36, 14.65 -8.46, 2.95 -18.64 M24.08 -0.27 C16.05 -7.25, 8.02 -14.23, 2.95 -18.64 M35.37 -1.06 C28.33 -7.18, 21.28 -13.3, 5.93 -26.64 M35.37 -1.06 C24.38 -10.6, 13.4 -20.15, 5.93 -26.64 M42.88 -5.12 C33.4 -13.37, 23.92 -21.61, 11.18 -32.68 M42.88 -5.12 C35.08 -11.91, 27.28 -18.69, 11.18 -32.68 M41.34 -17.07 C36.76 -21.05, 32.17 -25.03, 18.7 -36.75 M41.34 -17.07 C36.22 -21.51, 31.11 -25.96, 18.7 -36.75" stroke="#ced4da" stroke-width="1" fill="none"></path><path d="M0 0 C0.78 -4.11, 1.34 -18.46, 4.68 -24.67 C8.03 -30.87, 14.94 -36.78, 20.07 -37.23 C25.2 -37.68, 31.83 -33.14, 35.45 -27.36 C39.07 -21.58, 47.71 -7.12, 41.81 -2.56 C35.9 2, 6.97 -0.43, 0 0 M0 0 C0.78 -4.11, 1.34 -18.46, 4.68 -24.67 C8.03 -30.87, 14.94 -36.78, 20.07 -37.23 C25.2 -37.68, 31.83 -33.14, 35.45 -27.36 C39.07 -21.58, 47.71 -7.12, 41.81 -2.56 C35.9 2, 6.97 -0.43, 0 0" stroke="#000000" stroke-width="2" fill="none"></path></g></g><mask></mask><g stroke-linecap="round" transform="translate(409.7646659860377 12.939592201446658) rotate(0 10.702336545928915 9.364544477687808)"><path d="M2.43 3.43 C2.43 3.43, 2.43 3.43, 2.43 3.43 M2.43 3.43 C2.43 3.43, 2.43 3.43, 2.43 3.43 M2.56 15.48 C5.41 12.2, 8.25 8.93, 15.02 1.14 M2.56 15.48 C6.82 10.58, 11.08 5.68, 15.02 1.14 M10.57 18.46 C12.91 15.76, 15.25 13.07, 21.06 6.38 M10.57 18.46 C14.22 14.25, 17.88 10.05, 21.06 6.38 M4.02 16.71 C4.02 16.71, 4.02 16.71, 4.02 16.71 M4.02 16.71 C4.02 16.71, 4.02 16.71, 4.02 16.71 M16.82 17.23 C13.04 13.95, 9.27 10.67, 1.72 4.11 M16.82 17.23 C10.95 12.13, 5.07 7.02, 1.72 4.11 M21.31 10.54 C17.02 6.81, 12.73 3.08, 9.24 0.04 M21.31 10.54 C18.07 7.72, 14.82 4.9, 9.24 0.04" stroke="#ced4da" stroke-width="1" fill="none"></path><path d="M21.4 9.36 C21.4 9.91, 21.35 10.46, 21.24 10.99 C21.13 11.52, 20.97 12.06, 20.76 12.57 C20.55 13.08, 20.28 13.58, 19.97 14.05 C19.66 14.52, 19.3 14.97, 18.9 15.38 C18.5 15.8, 18.06 16.19, 17.58 16.54 C17.11 16.89, 16.59 17.2, 16.05 17.47 C15.52 17.75, 14.94 17.98, 14.36 18.16 C13.78 18.35, 13.17 18.49, 12.56 18.59 C11.95 18.68, 11.32 18.73, 10.7 18.73 C10.08 18.73, 9.45 18.68, 8.84 18.59 C8.23 18.49, 7.62 18.35, 7.04 18.16 C6.46 17.98, 5.89 17.75, 5.35 17.47 C4.81 17.2, 4.3 16.89, 3.82 16.54 C3.35 16.19, 2.9 15.8, 2.5 15.38 C2.11 14.97, 1.74 14.52, 1.43 14.05 C1.12 13.58, 0.86 13.08, 0.65 12.57 C0.43 12.06, 0.27 11.52, 0.16 10.99 C0.06 10.46, 0 9.91, 0 9.36 C0 8.82, 0.06 8.27, 0.16 7.74 C0.27 7.2, 0.43 6.67, 0.65 6.16 C0.86 5.65, 1.12 5.15, 1.43 4.68 C1.74 4.21, 2.11 3.76, 2.5 3.35 C2.9 2.93, 3.35 2.54, 3.82 2.19 C4.3 1.84, 4.81 1.53, 5.35 1.25 C5.89 0.98, 6.46 0.75, 7.04 0.56 C7.62 0.38, 8.23 0.24, 8.84 0.14 C9.45 0.05, 10.08 0, 10.7 0 C11.32 0, 11.95 0.05, 12.56 0.14 C13.17 0.24, 13.78 0.38, 14.36 0.56 C14.94 0.75, 15.52 0.98, 16.05 1.25 C16.59 1.53, 17.11 1.84, 17.58 2.19 C18.06 2.54, 18.5 2.93, 18.9 3.35 C19.3 3.76, 19.66 4.21, 19.97 4.68 C20.28 5.15, 20.55 5.65, 20.76 6.16 C20.97 6.67, 21.13 7.2, 21.24 7.74 C21.35 8.27, 21.38 9.09, 21.4 9.36 C21.43 9.64, 21.43 9.09, 21.4 9.36" stroke="#000000" stroke-width="2" fill="none"></path></g><g stroke-linecap="round"><g transform="translate(428.42987928967864 35.84503883623074) rotate(0 16.71865860152218 9.951582500906)" fill-rule="evenodd"><path d="M0 0 C0 0, 0 0, 0 0 M0 0 C0 0, 0 0, 0 0 M6.04 5.25 C8.99 1.85, 11.94 -1.55, 17.85 -8.34 M6.04 5.25 C10.63 -0.04, 15.23 -5.32, 17.85 -8.34 M10.11 12.76 C15.47 6.6, 20.83 0.43, 25.2 -4.6 M10.11 12.76 C14.16 8.09, 18.22 3.43, 25.2 -4.6 M14.18 20.27 C18.1 15.76, 22.02 11.25, 29.27 2.92 M14.18 20.27 C18.84 14.91, 23.51 9.54, 29.27 2.92 M17.59 28.54 C23.02 22.29, 28.46 16.04, 32.02 11.94 M17.59 28.54 C23.04 22.27, 28.5 15.99, 32.02 11.94 M29.53 27 C31.16 25.12, 32.8 23.24, 34.12 21.71 M29.53 27 C31.06 25.24, 32.58 23.49, 34.12 21.71 M14.43 27.6 C14.43 27.6, 14.43 27.6, 14.43 27.6 M14.43 27.6 C14.43 27.6, 14.43 27.6, 14.43 27.6 M26.47 27.47 C22.15 23.72, 17.83 19.96, 9.87 13.04 M26.47 27.47 C21.33 23, 16.19 18.54, 9.87 13.04 M33.23 22.75 C23.4 14.2, 13.56 5.65, 3.04 -3.5 M33.23 22.75 C25.7 16.2, 18.17 9.65, 3.04 -3.5 M31.68 10.8 C24.67 4.71, 17.66 -1.39, 9.8 -8.22 M31.68 10.8 C24.66 4.69, 17.63 -1.41, 9.8 -8.22" stroke="#ced4da" stroke-width="1" fill="none"></path><path d="M0 0 C0.86 -0.93, 3.58 -4.18, 5.17 -5.57 C6.77 -6.97, 7.56 -7.83, 9.55 -8.36 C11.54 -8.89, 14.99 -8.89, 17.12 -8.76 C19.24 -8.62, 20.83 -8.43, 22.29 -7.56 C23.75 -6.7, 24.88 -5.11, 25.87 -3.58 C26.87 -2.06, 27.47 -0.33, 28.26 1.59 C29.06 3.52, 29.92 5.84, 30.65 7.96 C31.38 10.08, 32.18 12.41, 32.64 14.33 C33.11 16.25, 33.44 17.78, 33.44 19.51 C33.44 21.23, 33.3 23.42, 32.64 24.68 C31.98 25.94, 30.72 26.47, 29.46 27.07 C28.2 27.67, 26.87 28, 25.08 28.26 C23.29 28.53, 20.43 28.73, 18.71 28.66 C16.98 28.59, 15.46 28.93, 14.73 27.86 C14 26.8, 14.66 23.82, 14.33 22.29 C14 20.77, 13.47 20.23, 12.74 18.71 C12.01 17.18, 11.08 15.33, 9.95 13.14 C8.82 10.95, 7.63 7.76, 5.97 5.57 C4.31 3.38, 1 0.93, 0 0 M0 0 C0.86 -0.93, 3.58 -4.18, 5.17 -5.57 C6.77 -6.97, 7.56 -7.83, 9.55 -8.36 C11.54 -8.89, 14.99 -8.89, 17.12 -8.76 C19.24 -8.62, 20.83 -8.43, 22.29 -7.56 C23.75 -6.7, 24.88 -5.11, 25.87 -3.58 C26.87 -2.06, 27.47 -0.33, 28.26 1.59 C29.06 3.52, 29.92 5.84, 30.65 7.96 C31.38 10.08, 32.18 12.41, 32.64 14.33 C33.11 16.25, 33.44 17.78, 33.44 19.51 C33.44 21.23, 33.3 23.42, 32.64 24.68 C31.98 25.94, 30.72 26.47, 29.46 27.07 C28.2 27.67, 26.87 28, 25.08 28.26 C23.29 28.53, 20.43 28.73, 18.71 28.66 C16.98 28.59, 15.46 28.93, 14.73 27.86 C14 26.8, 14.66 23.82, 14.33 22.29 C14 20.77, 13.47 20.23, 12.74 18.71 C12.01 17.18, 11.08 15.33, 9.95 13.14 C8.82 10.95, 7.63 7.76, 5.97 5.57 C4.31 3.38, 1 0.93, 0 0" stroke="#000000" stroke-width="2" fill="none"></path></g></g><mask></mask><g stroke-linecap="round"><g transform="translate(410.5110928363447 35.833162932826326) rotate(0 -16.121563651467795 11.941899001087322)" fill-rule="evenodd"><path d="M-24.42 -2.68 C-24.42 -2.68, -24.42 -2.68, -24.42 -2.68 M-24.42 -2.68 C-24.42 -2.68, -24.42 -2.68, -24.42 -2.68 M-31.51 17.66 C-23.93 8.94, -16.35 0.22, -10.51 -6.49 M-31.51 17.66 C-23.24 8.15, -14.97 -1.36, -10.51 -6.49 M-29.41 27.44 C-21.6 18.46, -13.79 9.47, -2.51 -3.51 M-29.41 27.44 C-23.08 20.16, -16.76 12.89, -2.51 -3.51 M-22.06 31.18 C-18.76 27.38, -15.46 23.58, -8.28 15.33 M-22.06 31.18 C-19.2 27.88, -16.33 24.59, -8.28 15.33 M-12.08 31.9 C-11.69 31.44, -11.29 30.98, -10.77 30.39 M-12.08 31.9 C-11.63 31.38, -11.18 30.85, -10.77 30.39 M-31.63 25.72 C-31.63 25.72, -31.63 25.72, -31.63 25.72 M-31.63 25.72 C-31.63 25.72, -31.63 25.72, -31.63 25.72 M-12.8 31.49 C-16.62 28.17, -20.44 24.84, -30.91 15.74 M-12.8 31.49 C-18.57 26.47, -24.34 21.45, -30.91 15.74 M-9.06 24.14 C-16.79 17.41, -24.52 10.69, -28.68 7.08 M-9.06 24.14 C-15.17 18.82, -21.29 13.51, -28.68 7.08 M-8.34 14.16 C-14.46 8.84, -20.58 3.52, -25.7 -0.93 M-8.34 14.16 C-15.19 8.2, -22.05 2.24, -25.7 -0.93 M-4.6 6.81 C-9.25 2.77, -13.9 -1.27, -20.45 -6.96 M-4.6 6.81 C-9.83 2.27, -15.05 -2.28, -20.45 -6.96 M-0.1 0.12 C-2.7 -2.13, -5.29 -4.39, -9.16 -7.75 M-0.1 0.12 C-2.29 -1.78, -4.47 -3.68, -9.16 -7.75" stroke="#ced4da" stroke-width="1" fill="none"></path><path d="M0 0 C-0.66 -0.73, -2.59 -3.18, -3.98 -4.38 C-5.37 -5.57, -6.37 -6.63, -8.36 -7.17 C-10.35 -7.7, -13.8 -7.7, -15.92 -7.56 C-18.05 -7.43, -19.64 -7.23, -21.1 -6.37 C-22.56 -5.51, -23.68 -3.91, -24.68 -2.39 C-25.68 -0.86, -26.27 0.86, -27.07 2.79 C-27.86 4.71, -28.73 7.03, -29.46 9.16 C-30.19 11.28, -30.98 13.6, -31.45 15.52 C-31.91 17.45, -32.24 18.97, -32.24 20.7 C-32.24 22.42, -32.11 24.61, -31.45 25.87 C-30.78 27.13, -29.46 27.53, -28.26 28.26 C-27.07 28.99, -26.01 29.72, -24.28 30.25 C-22.56 30.78, -20.1 31.25, -17.91 31.45 C-15.72 31.65, -12.41 32.64, -11.15 31.45 C-9.89 30.25, -10.62 26.07, -10.35 24.28 C-10.08 22.49, -9.89 22.29, -9.55 20.7 C-9.22 19.11, -9.16 17.05, -8.36 14.73 C-7.56 12.41, -6.17 9.22, -4.78 6.77 C-3.38 4.31, -0.8 1.13, 0 0 M0 0 C-0.66 -0.73, -2.59 -3.18, -3.98 -4.38 C-5.37 -5.57, -6.37 -6.63, -8.36 -7.17 C-10.35 -7.7, -13.8 -7.7, -15.92 -7.56 C-18.05 -7.43, -19.64 -7.23, -21.1 -6.37 C-22.56 -5.51, -23.68 -3.91, -24.68 -2.39 C-25.68 -0.86, -26.27 0.86, -27.07 2.79 C-27.86 4.71, -28.73 7.03, -29.46 9.16 C-30.19 11.28, -30.98 13.6, -31.45 15.52 C-31.91 17.45, -32.24 18.97, -32.24 20.7 C-32.24 22.42, -32.11 24.61, -31.45 25.87 C-30.78 27.13, -29.46 27.53, -28.26 28.26 C-27.07 28.99, -26.01 29.72, -24.28 30.25 C-22.56 30.78, -20.1 31.25, -17.91 31.45 C-15.72 31.65, -12.41 32.64, -11.15 31.45 C-9.89 30.25, -10.62 26.07, -10.35 24.28 C-10.08 22.49, -9.89 22.29, -9.55 20.7 C-9.22 19.11, -9.16 17.05, -8.36 14.73 C-7.56 12.41, -6.17 9.22, -4.78 6.77 C-3.38 4.31, -0.8 1.13, 0 0" stroke="#000000" stroke-width="2" fill="none"></path></g></g><mask></mask><g stroke-linecap="round" transform="translate(178.11076103528922 347.11176140048957) rotate(0 248 43)"><path d="M21.5 0 C188.25 1.73, 356.48 2.36, 474.5 0 M21.5 0 C116.53 0.11, 210.28 0.04, 474.5 0 M474.5 0 C488.71 -1.47, 497.59 8.4, 496 21.5 M474.5 0 C486.65 1.83, 497.15 8.36, 496 21.5 M496 21.5 C496.53 29.88, 494.48 37.35, 496 64.5 M496 21.5 C496.55 36.81, 496.57 54.37, 496 64.5 M496 64.5 C494.98 79.99, 489.26 84.99, 474.5 86 M496 64.5 C495.32 80.54, 488.16 88.17, 474.5 86 M474.5 86 C344.48 83.34, 215.93 84.18, 21.5 86 M474.5 86 C304.2 86, 134.3 86.31, 21.5 86 M21.5 86 C6.83 84.84, -1.07 80.71, 0 64.5 M21.5 86 C7.87 87.18, -0.05 78.2, 0 64.5 M0 64.5 C0.15 53.23, -0.5 38.92, 0 21.5 M0 64.5 C0.51 55.57, -0.23 45, 0 21.5 M0 21.5 C1.45 8.03, 8.35 0.81, 21.5 0 M0 21.5 C1.11 7.32, 6.78 -2.25, 21.5 0" stroke="#1e1e1e" stroke-width="2" fill="none"></path></g><g transform="translate(376.1107610352892 378.11176140048957) rotate(0 50 12)"><text x="50" y="0" font-family="Cascadia, Segoe UI Emoji" font-size="20px" fill="#1e1e1e" text-anchor="middle" style="white-space: pre;" direction="ltr" dominant-baseline="text-before-edge">后端服务器</text></g><g stroke-opacity="0" fill-opacity="0" stroke-linecap="round" transform="translate(184.89391387542128 582.7817326743398) rotate(0 58.37866158183556 58.378661581835615)"><path d="M82.61 5.68 C90.8 8.43, 98.52 16.04, 104.21 23.21 C109.9 30.38, 115.02 39.69, 116.75 48.71 C118.48 57.73, 117.5 68.62, 114.6 77.34 C111.7 86.07, 105.92 95.02, 99.35 101.08 C92.77 107.15, 83.81 111.3, 75.15 113.74 C66.48 116.19, 56.09 117.3, 47.36 115.78 C38.63 114.26, 29.74 110.2, 22.75 104.6 C15.76 99, 9.06 90.61, 5.43 82.19 C1.81 73.77, 0.4 63.16, 1.01 54.07 C1.62 44.99, 4.51 35.28, 9.1 27.68 C13.68 20.09, 20.84 13.08, 28.52 8.5 C36.21 3.92, 45.73 0.53, 55.21 0.22 C64.7 -0.1, 79.98 4.94, 85.43 6.62 C90.89 8.3, 88.48 9.45, 87.95 10.31 M78.56 2.53 C87.1 4.92, 96.74 12.59, 102.72 19.32 C108.7 26.05, 112.1 34.21, 114.45 42.91 C116.79 51.61, 118.59 62.56, 116.77 71.52 C114.96 80.48, 109.71 89.79, 103.54 96.69 C97.36 103.58, 88.45 109.84, 79.72 112.91 C71 115.98, 60.17 115.98, 51.18 115.1 C42.19 114.22, 32.92 112.53, 25.76 107.61 C18.6 102.69, 12.31 93.41, 8.2 85.58 C4.1 77.75, 1.43 69.57, 1.12 60.61 C0.81 51.66, 2.54 40.16, 6.32 31.83 C10.1 23.51, 16.29 15.88, 23.8 10.64 C31.32 5.41, 42.18 1.61, 51.4 0.44 C60.61 -0.72, 74.65 3.23, 79.08 3.67 C83.51 4.11, 78.68 1.97, 77.98 3.07" stroke="#1e1e1e" stroke-width="1" fill="none"></path></g><g transform="translate(211.8025971247373 659.5182198722814) rotate(0 31.46997833251953 12.5)"><text x="31.46997833251953" y="0" font-family="Virgil, Segoe UI Emoji" font-size="20px" fill="#1e1e1e" text-anchor="middle" style="white-space: pre;" direction="ltr" dominant-baseline="text-before-edge">MySQL</text></g><g stroke-linecap="round"><g transform="translate(218.35975993039733 615.8577243879777) rotate(0 21.45164646798804 11.061600613996632)"><path d="M0.94 -0.49 C0.81 4.27, 0.1 21.78, 0.27 27.6 C0.43 33.42, 0.71 32.54, 1.93 34.42 C3.16 36.31, 5.13 37.81, 7.59 38.89 C10.05 39.98, 13.44 40.67, 16.72 40.93 C19.99 41.19, 24.29 41.13, 27.24 40.47 C30.19 39.82, 32.1 38.15, 34.43 37.01 C36.75 35.87, 39.72 35.1, 41.18 33.61 C42.65 32.11, 42.85 31.69, 43.23 28.02 C43.6 24.36, 43.5 17.18, 43.43 11.6 C43.37 6.01, 42.97 -1.57, 42.86 -5.5 C42.74 -9.43, 43.52 -10.25, 42.75 -12 C41.97 -13.76, 40.85 -14.9, 38.21 -16.05 C35.56 -17.21, 30.79 -18.56, 26.88 -18.93 C22.98 -19.3, 18.06 -18.63, 14.76 -18.28 C11.46 -17.93, 9.41 -18.05, 7.09 -16.84 C4.76 -15.63, 1.91 -12.57, 0.81 -11.04 C-0.3 -9.52, 0.52 -9.41, 0.45 -7.69 C0.38 -5.97, 0.3 -2.05, 0.41 -0.71 M-0.02 -1.79 C-0.37 3.2, -0.76 23.04, -0.54 28.77 C-0.32 34.5, -0.09 31.26, 1.32 32.6 C2.73 33.93, 5.5 35.31, 7.91 36.78 C10.33 38.26, 12.86 41, 15.81 41.46 C18.75 41.91, 22.41 40.44, 25.56 39.5 C28.71 38.56, 32.26 36.75, 34.7 35.81 C37.15 34.87, 39.01 35.33, 40.23 33.87 C41.45 32.4, 41.3 30.71, 42.02 27.01 C42.73 23.32, 44.35 16.91, 44.54 11.68 C44.73 6.46, 43.67 -0.28, 43.15 -4.33 C42.64 -8.38, 42.16 -10.48, 41.42 -12.61 C40.68 -14.75, 41.25 -16, 38.73 -17.12 C36.2 -18.24, 30.23 -19.05, 26.27 -19.33 C22.31 -19.6, 18.49 -19.29, 14.96 -18.75 C11.43 -18.21, 7.67 -16.95, 5.08 -16.07 C2.49 -15.2, 0.36 -14.89, -0.6 -13.52 C-1.56 -12.16, -0.63 -10, -0.66 -7.89 C-0.68 -5.77, -0.62 -1.93, -0.76 -0.82" stroke="#1e1e1e" stroke-width="1" fill="none"></path></g></g><mask></mask><g stroke-linecap="round"><g transform="translate(218.68810145796874 606.0696380012002) rotate(0 21.396922880059492 4.432610622211826)"><path d="M0.12 -0.32 C0.84 0.65, 2.2 4.05, 4.73 5.59 C7.26 7.13, 11.57 8.36, 15.28 8.93 C18.99 9.49, 23.36 9.48, 26.98 8.99 C30.59 8.49, 34.36 7.27, 36.94 5.97 C39.53 4.68, 41.49 1.95, 42.47 1.22 M-0.48 0.7 C0.14 1.55, 1.79 3.63, 4.37 4.86 C6.94 6.09, 11.42 7.28, 14.97 8.06 C18.52 8.84, 22.08 9.86, 25.67 9.55 C29.27 9.24, 33.65 7.64, 36.53 6.18 C39.41 4.73, 41.84 1.64, 42.95 0.82" stroke="#1e1e1e" stroke-width="1" fill="none"></path></g></g><mask></mask><g stroke-linecap="round"><g transform="translate(218.33670100906033 615.3329181497324) rotate(0 21.396922880059492 4.432610622211826)"><path d="M0.13 0.45 C0.89 1.43, 2.07 4.17, 4.66 5.53 C7.26 6.9, 11.98 8.09, 15.7 8.66 C19.42 9.22, 23.58 9.36, 26.98 8.93 C30.39 8.49, 33.48 7.26, 36.12 6.04 C38.77 4.82, 41.68 2.39, 42.86 1.62 M-0.46 0.2 C0.22 1.06, 1.59 3.25, 4.27 4.77 C6.94 6.29, 12.04 8.54, 15.6 9.32 C19.17 10.1, 22.13 9.97, 25.69 9.46 C29.24 8.95, 33.98 7.62, 36.95 6.28 C39.93 4.94, 42.69 2.3, 43.53 1.42" stroke="#1e1e1e" stroke-width="1" fill="none"></path></g></g><mask></mask><g stroke-linecap="round"><g transform="translate(218.03588086851164 622.0441632573197) rotate(0 21.396922880059492 4.432610622211826)"><path d="M0.07 0.39 C0.89 1.19, 2.48 3.9, 5.09 5.26 C7.69 6.63, 12.2 7.98, 15.71 8.6 C19.22 9.22, 22.7 9.36, 26.16 9 C29.63 8.63, 33.67 7.7, 36.51 6.44 C39.35 5.17, 42.1 2.23, 43.19 1.42 M-0.56 0.12 C0.22 0.7, 2.21 2.84, 4.91 4.36 C7.6 5.88, 12.08 8.36, 15.62 9.23 C19.15 10.1, 22.73 10.23, 26.11 9.56 C29.49 8.9, 33.16 6.63, 35.87 5.22 C38.59 3.81, 41.1 1.78, 42.38 1.11" stroke="#1e1e1e" stroke-width="1" fill="none"></path></g></g><mask></mask><g stroke-linecap="round" transform="translate(467.55628023525196 537.3639820449634) rotate(0 71.97942153340341 41.72720088892942)"><path d="M20.86 0 C53.22 0.9, 84.92 -2.08, 123.1 0 M20.86 0 C54.67 -0.39, 87.56 -0.12, 123.1 0 M123.1 0 C136.93 0.58, 144.24 6.36, 143.96 20.86 M123.1 0 C138.07 -0.89, 144.3 6.21, 143.96 20.86 M143.96 20.86 C142.48 32.07, 145.39 44.81, 143.96 62.59 M143.96 20.86 C145.02 29.95, 143.87 38.13, 143.96 62.59 M143.96 62.59 C145.91 76.82, 137.99 84.02, 123.1 83.45 M143.96 62.59 C143.37 77.03, 135.08 81.38, 123.1 83.45 M123.1 83.45 C93.75 85.61, 68.31 84.32, 20.86 83.45 M123.1 83.45 C95.88 83.15, 67.83 83.4, 20.86 83.45 M20.86 83.45 C7.39 81.53, -1.55 78.3, 0 62.59 M20.86 83.45 C7.43 82.26, -0.28 74.77, 0 62.59 M0 62.59 C1.15 46.93, 0.11 31.86, 0 20.86 M0 62.59 C0.89 54, 0.17 44.49, 0 20.86 M0 20.86 C1.24 6.98, 8.74 0.85, 20.86 0 M0 20.86 C-0.61 5.38, 5.08 1.12, 20.86 0" stroke="#1e1e1e" stroke-width="2" fill="none"></path></g><g transform="translate(491.9575767686554 567.0911829338929) rotate(0 47.578125 12)"><text x="47.578125" y="0" font-family="Cascadia, Segoe UI Emoji" font-size="20px" fill="#1e1e1e" text-anchor="middle" style="white-space: pre;" direction="ltr" dominant-baseline="text-before-edge">客户端SDK</text></g><g stroke-linecap="round" transform="translate(248.4884755683729 775.2090271118614) rotate(0 295.2199462891756 45.378330966710735)"><path d="M22.69 0 C235.64 1.37, 448.97 1.86, 567.75 0 M22.69 0 C218.46 -1.75, 414.32 -1.98, 567.75 0 M567.75 0 C583.81 -0.77, 590.74 6.92, 590.44 22.69 M567.75 0 C582.42 0.3, 592.7 5.79, 590.44 22.69 M590.44 22.69 C588.96 35.89, 589.58 49.57, 590.44 68.07 M590.44 22.69 C591.31 37.89, 590.83 53.04, 590.44 68.07 M590.44 68.07 C589.93 83.65, 581.2 88.95, 567.75 90.76 M590.44 68.07 C589.87 84.07, 584.4 89.38, 567.75 90.76 M567.75 90.76 C363.75 90.68, 160 91.57, 22.69 90.76 M567.75 90.76 C408.9 90.74, 249.57 91.49, 22.69 90.76 M22.69 90.76 C7.98 89.71, -0.24 81.69, 0 68.07 M22.69 90.76 C9.18 92.83, 1.11 84.95, 0 68.07 M0 68.07 C-1.57 55.32, -0.65 43.68, 0 22.69 M0 68.07 C0.5 50.42, 0.78 33.18, 0 22.69 M0 22.69 C-0.53 6.2, 5.93 0.97, 22.69 0 M0 22.69 C0.56 7, 8.52 0.9, 22.69 0" stroke="#1e1e1e" stroke-width="2" fill="none"></path></g><g transform="translate(513.7084218575485 796.5873580785722) rotate(0 30 24)"><text x="30" y="0" font-family="Cascadia, Segoe UI Emoji" font-size="20px" fill="#1e1e1e" text-anchor="middle" style="white-space: pre;" direction="ltr" dominant-baseline="text-before-edge">网关</text><text x="30" y="24" font-family="Cascadia, Segoe UI Emoji" font-size="20px" fill="#1e1e1e" text-anchor="middle" style="white-space: pre;" direction="ltr" dominant-baseline="text-before-edge">服务器</text></g><g stroke-linecap="round"><g transform="translate(535.4632746228028 443.4777800448722) rotate(0 0 41.205610877817776)"><path d="M-0.49 1.16 C-0.42 15.08, -0.71 69.62, -0.63 83.29 M1.45 0.73 C2.01 14.33, 2.13 68.2, 1.75 81.63" stroke="#1e1e1e" stroke-width="2" fill="none"></path></g><g transform="translate(535.4632746228028 443.4777800448722) rotate(0 0 41.205610877817776)"><path d="M-6.57 58.05 C-2.92 61.98, -1.65 67.9, 1.75 81.63 M-6.57 58.05 C-2.99 66.34, 0.16 76.27, 1.75 81.63" stroke="#1e1e1e" stroke-width="2" fill="none"></path></g><g transform="translate(535.4632746228028 443.4777800448722) rotate(0 0 41.205610877817776)"><path d="M10.53 58.22 C10.59 62.05, 8.27 67.93, 1.75 81.63 M10.53 58.22 C7.85 66.39, 4.75 76.26, 1.75 81.63" stroke="#1e1e1e" stroke-width="2" fill="none"></path></g></g><mask></mask><g mask="url(#mask-oUBlj_7y0IoT1KJPMYfy2)" stroke-linecap="round"><g transform="translate(240.30191188154288 442.67482078895586) rotate(0 1.1612133758916912 62.59364888045144)"><path d="M-0.39 -0.26 C-0.11 20.62, 0.95 104.59, 1.42 125.47 M1.61 -1.44 C2.29 19.04, 3.63 102.21, 3.65 123.49" stroke="#1e1e1e" stroke-width="2" fill="none"></path></g><g transform="translate(240.30191188154288 442.67482078895586) rotate(0 1.1612133758916912 62.59364888045144)"><path d="M-5.13 100.08 C-3.09 105.07, 0.23 113.22, 3.65 123.49 M-5.13 100.08 C-3.38 107.66, 0.31 113.49, 3.65 123.49" stroke="#1e1e1e" stroke-width="2" fill="none"></path></g><g transform="translate(240.30191188154288 442.67482078895586) rotate(0 1.1612133758916912 62.59364888045144)"><path d="M11.97 99.91 C9.28 104.89, 7.88 113.09, 3.65 123.49 M11.97 99.91 C8.84 107.41, 7.64 113.29, 3.65 123.49" stroke="#1e1e1e" stroke-width="2" fill="none"></path></g></g><mask id="mask-oUBlj_7y0IoT1KJPMYfy2"><rect x="0" y="0" fill="#fff" width="342.62433863332626" height="667.8621185498587"></rect><rect x="181.4631252574344" y="493.2684696694074" fill="#000" width="120" height="24" opacity="1"></rect></mask><g transform="translate(181.4631252574345 493.2684696694073) rotate(0 60.47028387700681 11.420670153521883)"><text x="60" y="0" font-family="Cascadia, Segoe UI Emoji" font-size="20px" fill="#1e1e1e" text-anchor="middle" style="white-space: pre;" direction="ltr" dominant-baseline="text-before-edge">注册接口信息</text></g><g mask="url(#mask-LDjyesjO_DPSG7SPOaOWB)" stroke-linecap="round"><g transform="translate(540.735987214418 639.5956242228403) rotate(0 1.071653899480566 62.06921132228263)"><path d="M0.87 0.71 C1.31 21.38, 2.58 104.54, 2.78 125.17 M-0.13 0.04 C0.2 20.9, 1.93 103.2, 2.17 123.58" stroke="#1e1e1e" stroke-width="2" fill="none"></path></g><g transform="translate(540.735987214418 639.5956242228403) rotate(0 1.071653899480566 62.06921132228263)"><path d="M-6.78 100.24 C-2.58 108.52, 0.74 114.65, 2.17 123.58 M-6.78 100.24 C-3.34 107.56, -0.71 115.3, 2.17 123.58" stroke="#1e1e1e" stroke-width="2" fill="none"></path></g><g transform="translate(540.735987214418 639.5956242228403) rotate(0 1.071653899480566 62.06921132228263)"><path d="M10.32 99.95 C9.19 108.44, 7.18 114.67, 2.17 123.58 M10.32 99.95 C8.14 107.31, 5.14 115.15, 2.17 123.58" stroke="#1e1e1e" stroke-width="2" fill="none"></path></g></g><mask id="mask-LDjyesjO_DPSG7SPOaOWB"><rect x="0" y="0" fill="#fff" width="642.8792950133791" height="863.7340468674056"></rect><rect x="501.8076411138986" y="689.664835545123" fill="#000" width="80" height="24" opacity="1"></rect></mask><g transform="translate(501.8076411138986 689.664835545123) rotate(0 40.25682671388131 12.532305771731785)"><text x="40" y="0" font-family="Cascadia, Segoe UI Emoji" font-size="20px" fill="#1e1e1e" text-anchor="middle" style="white-space: pre;" direction="ltr" dominant-baseline="text-before-edge">请求接口</text></g><g stroke-linecap="round"><g transform="translate(420.8055920231618 112.7897130001061) rotate(0 0.24734170251645082 29.730630633362196)"><path d="M1.06 -0.93 C1.09 9.13, 0.65 50.16, 0.41 60.09 M0.16 1.2 C0 10.93, -0.91 48.57, -0.59 58.29" stroke="#1e1e1e" stroke-width="2" fill="none"></path></g><g transform="translate(420.8055920231618 112.7897130001061) rotate(0 0.24734170251645082 29.730630633362196)"><path d="M-9.15 34.81 C-8.02 42.09, -2.69 48.29, -0.59 58.29 M-9.15 34.81 C-8.06 39.5, -5.04 45.4, -0.59 58.29" stroke="#1e1e1e" stroke-width="2" fill="none"></path></g><g transform="translate(420.8055920231618 112.7897130001061) rotate(0 0.24734170251645082 29.730630633362196)"><path d="M7.95 34.79 C3.61 42.23, 3.48 48.44, -0.59 58.29 M7.95 34.79 C5.09 39.56, 4.15 45.46, -0.59 58.29" stroke="#1e1e1e" stroke-width="2" fill="none"></path></g></g><mask></mask><g stroke-linecap="round"><g transform="translate(422.69953927965344 263.0076362002521) rotate(0 0 35.468120755590064)"><path d="M-0.1 0.61 C-0.06 12.53, 0.27 60.45, 0.43 72.05 M-1.61 -0.11 C-1.71 11.45, -0.66 58.64, -0.29 70.52" stroke="#1e1e1e" stroke-width="2" fill="none"></path></g><g transform="translate(422.69953927965344 263.0076362002521) rotate(0 0 35.468120755590064)"><path d="M-9.44 47.25 C-5.4 55.37, -1.65 63.53, -0.29 70.52 M-9.44 47.25 C-6.59 53.48, -5.83 59.26, -0.29 70.52" stroke="#1e1e1e" stroke-width="2" fill="none"></path></g><g transform="translate(422.69953927965344 263.0076362002521) rotate(0 0 35.468120755590064)"><path d="M7.66 46.82 C6.27 55.06, 4.59 63.36, -0.29 70.52 M7.66 46.82 C6.38 53.21, 3.02 59.1, -0.29 70.52" stroke="#1e1e1e" stroke-width="2" fill="none"></path></g></g><mask></mask><g mask="url(#mask-phBhI-4dEqJwxjmGH1Yxr)" stroke-linecap="round"><g transform="translate(239.09985536836382 823.1953081341303) rotate(0 -84.20406108103845 -98.23221431128763)"><path d="M0.86 0.35 C-23.87 -2.61, -121.45 11.62, -148.01 -16.8 C-174.57 -45.23, -172.54 -140.02, -158.51 -170.19 C-144.48 -200.36, -79.51 -193.09, -63.83 -197.82 M-0.15 -0.52 C-24.96 -3.88, -121.84 9.73, -148.35 -18.44 C-174.87 -46.6, -173.43 -139.75, -159.24 -169.49 C-145.06 -199.24, -78.8 -192.03, -63.24 -196.91" stroke="#1e1e1e" stroke-width="2" fill="none"></path></g><g transform="translate(239.09985536836382 823.1953081341303) rotate(0 -84.20406108103845 -98.23221431128763)"><path d="M-85.78 -186.1 C-77.86 -187.89, -69.46 -193.29, -63.24 -196.91 M-85.78 -186.1 C-81.28 -189.12, -76.19 -189.92, -63.24 -196.91" stroke="#1e1e1e" stroke-width="2" fill="none"></path></g><g transform="translate(239.09985536836382 823.1953081341303) rotate(0 -84.20406108103845 -98.23221431128763)"><path d="M-87.46 -203.12 C-78.85 -199.31, -69.89 -199.1, -63.24 -196.91 M-87.46 -203.12 C-82.52 -202.72, -77.09 -200.11, -63.24 -196.91" stroke="#1e1e1e" stroke-width="2" fill="none"></path></g></g><mask id="mask-phBhI-4dEqJwxjmGH1Yxr"><rect x="0" y="0" fill="#fff" width="497.6632187462957" height="1120.6514598615895"></rect><rect x="10" y="716.7465488355771" fill="#000" width="120" height="24" opacity="1"></rect></mask><g transform="translate(10 716.7465488355771) rotate(0 144.89579428732537 8.216544987265593)"><text x="60" y="0" font-family="Cascadia, Segoe UI Emoji" font-size="20px" fill="#1e1e1e" text-anchor="middle" style="white-space: pre;" direction="ltr" dominant-baseline="text-before-edge">统计调用次数</text></g><g stroke-linecap="round" transform="translate(946.3759104357182 526.9321818227311) rotate(0 140.82930300013686 319.73467681142205)"><path d="M32 0 C97.31 0.25, 162.65 -0.98, 249.66 0 M32 0 C79.75 -0.79, 128.58 0.46, 249.66 0 M249.66 0 C269.91 0.93, 280.92 9.75, 281.66 32 M249.66 0 C269.65 2.03, 283.27 9.92, 281.66 32 M281.66 32 C279.06 169.41, 279.8 306.71, 281.66 607.47 M281.66 32 C282 172.73, 282.26 313.09, 281.66 607.47 M281.66 607.47 C281.18 629.98, 269.63 640.11, 249.66 639.47 M281.66 607.47 C281.21 628.78, 269.14 637.95, 249.66 639.47 M249.66 639.47 C170.61 639.57, 90.5 639.92, 32 639.47 M249.66 639.47 C172.99 640.86, 97.63 640.5, 32 639.47 M32 639.47 C10.56 638.44, 0.22 629.85, 0 607.47 M32 639.47 C12.5 637.41, -2 627.59, 0 607.47 M0 607.47 C1.17 399.38, 1.36 190.43, 0 32 M0 607.47 C1.25 470.31, 0.79 333.23, 0 32 M0 32 C0.24 11.91, 9.92 -0.98, 32 0 M0 32 C-1.81 12.5, 11.17 -1.9, 32 0" stroke="#1e1e1e" stroke-width="2" fill="none"></path></g><g transform="translate(1003.7508116579966 562.4003025783211) rotate(0 80 12)"><text x="0" y="0" font-family="Cascadia, Segoe UI Emoji" font-size="20px" fill="#1e1e1e" text-anchor="start" style="white-space: pre;" direction="ltr" dominant-baseline="text-before-edge">第三方接口服务器</text></g><g stroke-linecap="round" transform="translate(1007.9235317468888 626.0342839339385) rotate(0 73.54419156673839 52.15900111116184)"><path d="M26.08 0 C45.25 -1.36, 68.71 0.11, 121.01 0 M26.08 0 C47.34 0.71, 66.79 0.01, 121.01 0 M121.01 0 C138.17 1.84, 148.29 7, 147.09 26.08 M121.01 0 C140.56 -0.67, 146.86 6.55, 147.09 26.08 M147.09 26.08 C147.7 41.87, 146.47 57.84, 147.09 78.24 M147.09 26.08 C148.08 42.71, 146.47 59.31, 147.09 78.24 M147.09 78.24 C147.14 96, 140.29 106, 121.01 104.32 M147.09 78.24 C147.13 95.23, 136.92 102.81, 121.01 104.32 M121.01 104.32 C88.62 105.99, 52.56 102.81, 26.08 104.32 M121.01 104.32 C92.01 104.05, 60.33 104.08, 26.08 104.32 M26.08 104.32 C8.56 102.88, 0.16 96.9, 0 78.24 M26.08 104.32 C6.43 105.47, -0.11 95.25, 0 78.24 M0 78.24 C0.94 66.69, 1.03 54.09, 0 26.08 M0 78.24 C-0.47 59.81, -0.41 41.92, 0 26.08 M0 26.08 C-1.1 7.02, 8.27 -0.69, 26.08 0 M0 26.08 C-2.27 10.2, 7.15 2.24, 26.08 0" stroke="#1e1e1e" stroke-width="2" fill="none"></path></g><g transform="translate(1031.4677233136272 666.1932850451003) rotate(0 50 12)"><text x="50" y="0" font-family="Cascadia, Segoe UI Emoji" font-size="20px" fill="#1e1e1e" text-anchor="middle" style="white-space: pre;" direction="ltr" dominant-baseline="text-before-edge">接口服务器</text></g><g stroke-linecap="round" transform="translate(1007.9235317468888 747.043166511834) rotate(0 73.54419156673839 52.15900111116184)"><path d="M26.08 0 C48.15 -0.38, 73.32 1.59, 121.01 0 M26.08 0 C59.75 1.06, 94.24 -0.71, 121.01 0 M121.01 0 C140.28 -0.59, 146.89 6.83, 147.09 26.08 M121.01 0 C138.67 1.4, 145.54 9.04, 147.09 26.08 M147.09 26.08 C147.18 41.39, 148.06 56.33, 147.09 78.24 M147.09 26.08 C146.67 42.5, 147.59 59.38, 147.09 78.24 M147.09 78.24 C147.12 95.28, 137.11 103.01, 121.01 104.32 M147.09 78.24 C148.38 94.86, 138.63 105.95, 121.01 104.32 M121.01 104.32 C85.35 101.78, 50.35 105.45, 26.08 104.32 M121.01 104.32 C100.77 102.79, 80.74 104.15, 26.08 104.32 M26.08 104.32 C6.73 105.32, -0.1 95.3, 0 78.24 M26.08 104.32 C7.18 106.35, 0.84 97.24, 0 78.24 M0 78.24 C0.43 60.24, 0.85 42.2, 0 26.08 M0 78.24 C-0.25 65.09, 0.09 53.27, 0 26.08 M0 26.08 C-1.97 10, 7.35 1.95, 26.08 0 M0 26.08 C0.04 8.42, 10.72 1.48, 26.08 0" stroke="#1e1e1e" stroke-width="2" fill="none"></path></g><g transform="translate(1031.4677233136272 787.2021676229958) rotate(0 50 12)"><text x="50" y="0" font-family="Cascadia, Segoe UI Emoji" font-size="20px" fill="#1e1e1e" text-anchor="middle" style="white-space: pre;" direction="ltr" dominant-baseline="text-before-edge">接口服务器</text></g><g stroke-linecap="round" transform="translate(1007.9235317468888 868.0520490897293) rotate(0 73.54419156673839 52.15900111116184)"><path d="M26.08 0 C61.26 1.09, 101.74 2.32, 121.01 0 M26.08 0 C58.34 -1.03, 92.26 -1.6, 121.01 0 M121.01 0 C137.84 1.79, 147.1 7.87, 147.09 26.08 M121.01 0 C136.12 1.73, 147.35 8.33, 147.09 26.08 M147.09 26.08 C147.5 39.06, 146 48.3, 147.09 78.24 M147.09 26.08 C146.41 38.53, 146.58 51.27, 147.09 78.24 M147.09 78.24 C147.51 93.97, 138.85 106.21, 121.01 104.32 M147.09 78.24 C147.34 96.28, 140.28 103.63, 121.01 104.32 M121.01 104.32 C103.07 105.64, 81.13 103.75, 26.08 104.32 M121.01 104.32 C83.11 102.72, 47.02 102.6, 26.08 104.32 M26.08 104.32 C9.62 103.5, 0.1 96.09, 0 78.24 M26.08 104.32 C7.36 106.55, 0.43 94.05, 0 78.24 M0 78.24 C-0.44 57.48, 0.1 36.71, 0 26.08 M0 78.24 C-1.45 66.46, -0.34 55.24, 0 26.08 M0 26.08 C1.61 10.03, 10.28 0.73, 26.08 0 M0 26.08 C2.21 7.39, 10.13 0.78, 26.08 0" stroke="#1e1e1e" stroke-width="2" fill="none"></path></g><g transform="translate(1031.4677233136272 908.2110502008911) rotate(0 50 12)"><text x="50" y="0" font-family="Cascadia, Segoe UI Emoji" font-size="20px" fill="#1e1e1e" text-anchor="middle" style="white-space: pre;" direction="ltr" dominant-baseline="text-before-edge">接口服务器</text></g><g stroke-linecap="round" transform="translate(1007.9235317468888 989.0609316676248) rotate(0 73.54419156673839 52.15900111116184)"><path d="M26.08 0 C50 -0.35, 76.61 -0.55, 121.01 0 M26.08 0 C47.63 0.63, 70.04 -0.05, 121.01 0 M121.01 0 C138.8 -0.93, 146.93 8.61, 147.09 26.08 M121.01 0 C137.43 -1.38, 147.5 7.85, 147.09 26.08 M147.09 26.08 C145.68 46.48, 148.4 65.23, 147.09 78.24 M147.09 26.08 C147.45 39.01, 146.19 50.93, 147.09 78.24 M147.09 78.24 C145.32 94.51, 138.05 104.79, 121.01 104.32 M147.09 78.24 C146.12 95.23, 138.76 106.33, 121.01 104.32 M121.01 104.32 C88.59 103.1, 53.5 103.97, 26.08 104.32 M121.01 104.32 C97.83 105.21, 73.03 105.09, 26.08 104.32 M26.08 104.32 C7.69 106.01, -0.12 93.85, 0 78.24 M26.08 104.32 C9.53 102.79, 0.91 97.89, 0 78.24 M0 78.24 C0.97 63.04, -0.75 45.11, 0 26.08 M0 78.24 C0.67 64.15, 0.17 49.82, 0 26.08 M0 26.08 C0.11 7.26, 8 -0.34, 26.08 0 M0 26.08 C-0.66 9.12, 10.43 1.31, 26.08 0" stroke="#1e1e1e" stroke-width="2" fill="none"></path></g><g transform="translate(1031.4677233136272 1029.2199327787866) rotate(0 50 12)"><text x="50" y="0" font-family="Cascadia, Segoe UI Emoji" font-size="20px" fill="#1e1e1e" text-anchor="middle" style="white-space: pre;" direction="ltr" dominant-baseline="text-before-edge">接口服务器</text></g><g stroke-linecap="round"><g transform="translate(853.5328884578503 823.1953081341301) rotate(0 35.98971076670159 0)"><path d="M1.12 -0.56 C12.9 -0.54, 59.97 -0.21, 71.82 -0.05 M0.24 1.76 C11.76 1.99, 58.89 2.04, 70.79 1.46" stroke="#1e1e1e" stroke-width="2" fill="none"></path></g><g transform="translate(853.5328884578503 823.1953081341301) rotate(0 35.98971076670159 0)"><path d="M47.47 10.48 C55.69 6.46, 65.67 3.62, 70.79 1.46 M47.47 10.48 C55.79 6.89, 62.51 4.56, 70.79 1.46" stroke="#1e1e1e" stroke-width="2" fill="none"></path></g><g transform="translate(853.5328884578503 823.1953081341301) rotate(0 35.98971076670159 0)"><path d="M47.13 -6.62 C55.46 -3.94, 65.57 -0.08, 70.79 1.46 M47.13 -6.62 C55.43 -4.5, 62.27 -1.14, 70.79 1.46" stroke="#1e1e1e" stroke-width="2" fill="none"></path></g></g><mask></mask></svg>