<svg version="1.1" xmlns="http://www.w3.org/2000/svg" viewBox="0 0 313.0943085825452 313.0943085825452" width="313.0943085825452" height="313.0943085825452">
  <!-- svg-source:excalidraw -->
  
  <defs>
    <style class="style-fonts">
      @font-face {
        font-family: "Virgil";
        src: url("https://excalidraw.com/Virgil.woff2");
      }
      @font-face {
        font-family: "Cascadia";
        src: url("https://excalidraw.com/Cascadia.woff2");
      }
      @font-face {
        font-family: "Assistant";
        src: url("https://excalidraw.com/Assistant-Regular.woff2");
      }
    </style>
    
  </defs>
  <g stroke-linecap="round" transform="translate(10 10) rotate(0 146.5471542912726 146.5471542912726)"><path d="M183.75 36.75 C201.41 54.36, 216.91 75.46, 256.34 110.25 C291.27 143.41, 292.82 148.8, 256.34 183.75 C239.84 202.82, 213.99 223.37, 183.75 256.34 C147.77 294.56, 145.88 292.81, 110.25 256.34 C87.6 237.01, 66.18 216.09, 36.75 183.75 C3.05 145.3, -0.9 146.34, 36.75 110.25 C57.99 86.41, 77.1 67.27, 110.25 36.75 C143.57 -2.45, 145.41 1.35, 183.75 36.75" stroke="none" stroke-width="0" fill="#1e1e1e"></path><path d="M183.75 36.75 C203.65 55.25, 225.09 79.57, 256.34 110.25 M183.75 36.75 C201.17 53.94, 218.92 71.28, 256.34 110.25 M256.34 110.25 C291.94 148.78, 291.3 148.68, 256.34 183.75 M256.34 110.25 C293.98 148.11, 291.37 147.4, 256.34 183.75 M256.34 183.75 C241.55 199.4, 224.76 215.73, 183.75 256.34 M256.34 183.75 C238.22 200.97, 221.92 218.17, 183.75 256.34 M183.75 256.34 C146.87 291.22, 146.92 294.87, 110.25 256.34 M183.75 256.34 C146.17 293.14, 145.52 292.67, 110.25 256.34 M110.25 256.34 C82.71 229.89, 58.87 206.58, 36.75 183.75 M110.25 256.34 C92.02 237.39, 71.84 217.45, 36.75 183.75 M36.75 183.75 C1.62 146.7, -0.57 145.84, 36.75 110.25 M36.75 183.75 C0.99 146.12, 2.02 147.34, 36.75 110.25 M36.75 110.25 C60.94 83.56, 86.44 58.94, 110.25 36.75 M36.75 110.25 C55.84 91.03, 74.72 72.35, 110.25 36.75 M110.25 36.75 C146.35 -1.04, 146.16 0.72, 183.75 36.75 M110.25 36.75 C145.27 1.57, 147.71 1.92, 183.75 36.75" stroke="#1e1e1e" stroke-width="2" fill="none"></path></g><g stroke-linecap="round"><g transform="translate(175.48862321327374 36.916824257580686) rotate(0 -38.38139755247619 106.17191790490156)"><path d="M0.09 0.22 C-12.78 35.29, -64.86 175.96, -77.67 211.37 M-1.32 -0.71 C-13.77 34.4, -62.73 176.58, -75.44 212.39" stroke="#ffffff" stroke-width="2" fill="none"></path></g></g><mask></mask><g stroke-linecap="round"><g transform="translate(210.29050322311696 68.65161379568411) rotate(0 -18.44300921352749 108.66421644727009)"><path d="M-0.34 0.21 C-6.25 36.4, -30.41 182.01, -36.65 218.04 M1.68 -0.73 C-4.27 35.05, -31.3 179.97, -37.48 216.28" stroke="#ffffff" stroke-width="2" fill="none"></path></g></g><mask></mask><g stroke-linecap="round"><g transform="translate(242.23812902589088 100.2323588588826) rotate(0 -86.73198927442661 -0.9969194169474065)"><path d="M-0.9 -0.97 C-29.79 -1.28, -144.44 -0.92, -173.13 -1.14 M0.84 1.14 C-28.21 0.44, -144.83 -2.44, -173.9 -2.82" stroke="#ffffff" stroke-width="2" fill="none"></path></g></g><mask></mask><g stroke-linecap="round"><g transform="translate(277.130308619051 137.6168369944113) rotate(0 -112.6518941150598 29.907582508422934)"><path d="M1.04 0.54 C-36.48 10.6, -187.38 51.11, -225.28 60.86 M0.12 -0.22 C-37.54 9.47, -188.86 49.26, -226.21 59.28" stroke="#ffffff" stroke-width="2" fill="none"></path></g></g><mask></mask></svg>